<svg width="1046" height="352" viewBox="0 0 1046 352" fill="none" xmlns="http://www.w3.org/2000/svg">
<path d="M7.00001 11.9999H1046V343H7.00001V11.9999Z" fill="#E62337"/>
<path d="M236.989 341.6V10.3999H97.4712L0.595215 62.9779V183.038L124.381 108.104V341.6H236.989Z" fill="white"/>
<path d="M292.31 305.582C321.29 336.218 362.276 351.122 415.682 351.122C469.088 351.122 510.074 336.218 539.054 305.582C568.034 275.36 582.524 232.304 582.524 176C582.524 120.11 568.034 77.0539 539.054 46.4179C510.074 16.1959 469.088 0.87793 415.682 0.87793C362.276 0.87793 321.29 16.1959 292.31 46.4179C263.33 77.0539 249.254 120.11 249.254 176C249.254 232.304 263.33 275.36 292.31 305.582ZM415.682 261.284C378.836 261.284 360.62 233.132 360.62 176C360.62 118.868 378.836 90.3019 415.682 90.3019C452.528 90.3019 471.158 118.868 471.158 176C471.158 233.132 452.528 261.284 415.682 261.284Z" fill="white"/>
<path d="M130.251 322.928C134.283 326 139.947 327.536 147.147 327.536C152.715 327.536 157.515 326.864 161.451 325.328C165.387 323.792 168.171 321.68 169.707 318.8H172.107V326H188.811V289.52C188.811 281.456 186.027 275.312 180.651 270.992C175.179 266.768 167.307 264.56 157.035 264.56C146.091 264.56 137.643 266.768 131.499 270.992C125.355 275.312 121.899 281.456 121.131 289.52H137.835C138.795 286.064 140.907 283.376 144.075 281.648C147.147 279.92 151.467 279.056 156.939 279.056C166.059 279.056 171.051 282.416 172.011 288.944L146.859 291.44C139.179 292.304 133.419 294.224 129.771 297.296C126.027 300.368 124.203 304.592 124.203 310.064C124.203 315.536 126.219 319.856 130.251 322.928ZM152.235 313.904C145.323 313.904 141.867 312.176 141.867 308.624C141.867 307.088 142.347 305.936 143.403 304.976C144.459 304.112 145.995 303.536 148.011 303.344L172.107 300.944V302.864C172.107 304.976 171.147 306.8 169.419 308.528C167.691 310.256 165.291 311.504 162.219 312.464C159.147 313.424 155.883 313.904 152.235 313.904Z" fill="#413F41"/>
<path d="M265.115 266.48H247.835V326H265.115V296.24C265.115 290.768 266.363 286.736 268.955 284.24C271.451 281.744 275.483 280.4 280.955 280.4C286.427 280.4 290.459 281.744 292.955 284.24C295.451 286.736 296.795 290.768 296.795 296.24V326H314.075V292.4C314.075 283.76 311.579 277.04 306.779 272.048C301.883 267.056 295.163 264.56 286.715 264.56C282.107 264.56 278.075 265.328 274.811 266.672C271.547 268.112 269.051 270.128 267.515 272.72H265.115V266.48Z" fill="#413F41"/>
<path d="M386.957 324.08C392.333 326.672 398.861 327.92 406.349 327.92C413.741 327.92 420.173 326.672 425.645 324.08C431.021 321.584 435.245 317.936 438.125 313.136C441.005 308.336 442.541 302.768 442.541 296.24C442.541 289.712 441.005 284.144 438.125 279.344C435.245 274.544 431.021 270.896 425.645 268.4C420.173 265.904 413.741 264.56 406.349 264.56C398.861 264.56 392.333 265.904 386.957 268.4C381.485 270.896 377.357 274.544 374.477 279.344C371.597 284.144 370.157 289.712 370.157 296.24C370.157 302.768 371.597 308.336 374.477 313.136C377.357 317.936 381.581 321.584 386.957 324.08ZM392.237 308.624C388.973 305.744 387.341 301.616 387.341 296.24C387.341 290.864 388.973 286.736 392.237 283.856C395.501 280.976 400.205 279.536 406.349 279.536C412.493 279.536 417.197 280.976 420.461 283.856C423.725 286.736 425.357 290.864 425.357 296.24C425.357 301.616 423.725 305.744 420.461 308.624C417.197 311.504 412.493 312.944 406.349 312.944C400.205 312.944 395.501 311.504 392.237 308.624Z" fill="#413F41"/>
<path d="M530.382 313.52C521.166 313.52 515.79 311.504 514.062 307.376H496.878C498.03 321.104 509.166 327.92 530.382 327.92C540.75 327.92 548.814 326.192 554.382 322.64C559.95 319.088 562.83 314 562.83 307.472C562.83 301.712 560.91 297.296 557.262 294.32C553.614 291.44 547.854 289.712 539.982 289.136L522.03 288.176C519.342 288.08 517.326 287.696 516.078 287.024C514.83 286.448 514.254 285.488 514.254 284.336C514.254 282.608 515.502 281.264 518.094 280.304C520.59 279.44 524.526 278.96 529.902 278.96C535.086 278.96 539.118 279.632 541.998 280.784C544.878 281.936 546.606 283.76 547.374 286.256H564.366C563.886 278.96 560.814 273.584 555.15 269.936C549.39 266.384 541.038 264.56 529.902 264.56C519.342 264.56 511.182 266.384 505.518 269.936C499.854 273.488 497.07 278.48 497.07 285.008C497.07 290.864 498.894 295.184 502.542 298.064C506.19 300.944 512.046 302.672 519.918 303.152L537.87 304.112C540.654 304.304 542.67 304.784 543.822 305.36C544.974 306.032 545.646 306.992 545.646 308.144C545.646 310.064 544.398 311.408 541.902 312.272C539.406 313.136 535.566 313.52 530.382 313.52Z" fill="#413F41"/>
</svg>
