<?xml version="1.0" encoding="UTF-8"?>
<svg id="b" data-name="Layer 2" xmlns="http://www.w3.org/2000/svg" viewBox="0 0 431.65 245.9">
  <g id="c" data-name="svg21">
    <rect width="431.65" height="245.9" style="fill: #e62337;"/>
    <polygon points="172.5 0 172.5 245.9 88.04 245.9 88.04 72.08 0 125.37 0 35.63 65.65 0 172.5 0" style="fill: #fff;"/>
    <path id="d" data-name="path2079" d="m399.04,25.81c-11.02-11.49-24.36-20.11-40.06-25.81h-104.93c-15.7,5.7-29.04,14.32-40.06,25.81-21.74,22.98-32.3,55.27-32.3,97.19s10.56,74.52,32.3,97.19c10.88,11.5,24.02,20.05,39.45,25.71h106.15c15.43-5.66,28.57-14.21,39.45-25.71,21.74-22.67,32.61-54.96,32.61-97.19s-10.87-74.21-32.61-97.19Zm-92.52,161.15c-27.64,0-41.3-21.11-41.3-63.96s13.66-64.27,41.3-64.27,41.6,21.42,41.6,64.27-13.97,63.96-41.6,63.96Z" style="fill: #fff;"/>
    <path id="e" data-name="path2081" d="m109.22,236.73c3.27,2.3,7.87,3.46,13.71,3.46,4.52,0,8.42-.5,11.61-1.66s5.45-2.74,6.7-4.9h1.95v5.4h13.56v-27.36c0-6.05-2.26-10.66-6.62-13.9-4.44-3.17-10.83-4.82-19.17-4.82-8.88,0-15.74,1.66-20.73,4.82-4.99,3.24-7.79,7.85-8.42,13.9h13.56c.78-2.59,2.49-4.61,5.07-5.9,2.49-1.3,6-1.94,10.44-1.94,7.4,0,11.45,2.52,12.23,7.42l-20.42,1.87c-6.23.65-10.91,2.09-13.87,4.39-3.04,2.3-4.52,5.47-4.52,9.58s1.64,7.34,4.91,9.65Zm17.84-6.77c-5.61,0-8.42-1.3-8.42-3.96,0-1.15.39-2.02,1.25-2.74.86-.65,2.1-1.08,3.74-1.22l19.56-1.8v1.44c0,1.58-.78,2.95-2.18,4.25s-3.35,2.23-5.84,2.95c-2.49.72-5.14,1.08-8.1,1.08h0Z" style="fill: #413f41;"/>
    <path id="f" data-name="path2083" d="m210.36,194.39h-14.23v44.64h14.23v-22.32c0-4.1,1.03-7.13,3.16-9,2.06-1.87,5.38-2.88,9.88-2.88s7.83,1.01,9.88,2.88,3.16,4.9,3.16,9v22.32h14.23v-25.2c0-6.48-2.06-11.52-6.01-15.26-4.03-3.74-9.57-5.62-16.52-5.62-3.8,0-7.12.58-9.8,1.58-2.69,1.08-4.74,2.59-6.01,4.54h-1.98v-4.68Z" style="fill: #413f41;"/>
    <path id="g" data-name="path2085" d="m293.52,237.59c4.03,1.94,8.93,2.88,14.54,2.88s10.37-.94,14.47-2.88c4.03-1.87,7.2-4.61,9.36-8.21s3.31-7.78,3.31-12.67-1.15-9.07-3.31-12.67c-2.16-3.6-5.33-6.34-9.36-8.21-4.1-1.87-8.93-2.88-14.47-2.88s-10.51,1.01-14.54,2.88c-4.1,1.87-7.2,4.61-9.36,8.21s-3.24,7.78-3.24,12.67,1.08,9.07,3.24,12.67,5.33,6.34,9.36,8.21Zm3.96-11.59c-2.45-2.16-3.67-5.26-3.67-9.29s1.22-7.13,3.67-9.29,5.98-3.24,10.58-3.24,8.14,1.08,10.58,3.24,3.67,5.26,3.67,9.29-1.22,7.13-3.67,9.29-5.98,3.24-10.58,3.24-8.14-1.08-10.58-3.24Z" style="fill: #413f41;"/>
    <path id="h" data-name="path2087" d="m395.27,229.67c-6.91,0-10.94-1.51-12.24-4.61h-12.89c.86,10.3,9.22,15.41,25.13,15.41,7.78,0,13.82-1.3,18-3.96s6.34-6.48,6.34-11.38c0-4.32-1.44-7.63-4.18-9.86-2.74-2.16-7.06-3.46-12.96-3.89l-13.46-.72c-2.02-.07-3.53-.36-4.46-.86-.94-.43-1.37-1.15-1.37-2.02,0-1.3.94-2.3,2.88-3.02,1.87-.65,4.82-1.01,8.86-1.01s6.91.5,9.07,1.37,3.46,2.23,4.03,4.1h12.74c-.36-5.47-2.66-9.5-6.91-12.24-4.32-2.66-10.58-4.03-18.94-4.03-7.92,0-14.04,1.37-18.29,4.03s-6.34,6.41-6.34,11.3c0,4.39,1.37,7.63,4.1,9.79s7.13,3.46,13.03,3.82l13.46.72c2.09.14,3.6.5,4.46.94.86.5,1.37,1.22,1.37,2.09,0,1.44-.94,2.45-2.81,3.1-1.87.65-4.75.94-8.64.94h0Z" style="fill: #413f41;"/>
  </g>
</svg>