<?xml version="1.0" encoding="UTF-8" standalone="no"?>
<!-- Created with Inkscape (http://www.inkscape.org/) -->

<svg
   width="153.96864mm"
   height="92.668747mm"
   viewBox="0 0 153.96864 92.668747"
   version="1.1"
   id="svg21"
   xml:space="preserve"
   xmlns:inkscape="http://www.inkscape.org/namespaces/inkscape"
   xmlns:sodipodi="http://sodipodi.sourceforge.net/DTD/sodipodi-0.dtd"
   xmlns="http://www.w3.org/2000/svg"
   xmlns:svg="http://www.w3.org/2000/svg"><sodipodi:namedview
     id="namedview23"
     pagecolor="#505050"
     bordercolor="#eeeeee"
     borderopacity="1"
     inkscape:showpageshadow="0"
     inkscape:pageopacity="0"
     inkscape:pagecheckerboard="0"
     inkscape:deskcolor="#505050"
     inkscape:document-units="mm"
     showgrid="false" /><defs
     id="defs18" /><g
     inkscape:label="Layer 1"
     inkscape:groupmode="layer"
     id="layer1"
     transform="translate(11.67992,-136.39338)"><g
       style="fill:none"
       id="g2102"
       transform="matrix(0.26458333,0,0,0.26458333,-11.837403,136.1611)"
       inkscape:export-filename="g2102.svg"
       inkscape:export-xdpi="96"
       inkscape:export-ydpi="96"><path
         d="M 7.00001,11.9999 H 573.07228 V 343 H 7.00001 Z"
         fill="#e62337"
         id="path2075"
         sodipodi:nodetypes="ccccc" /><path
         d="M 236.989,341.6 V 10.3999 H 97.4712 L 0.595215,62.9779 V 183.038 L 124.381,108.104 V 341.6 Z"
         fill="#ffffff"
         id="path2077" /><path
         d="m 292.31,305.582 c 28.98,30.636 69.966,45.54 123.372,45.54 53.406,0 94.392,-14.904 123.372,-45.54 28.98,-30.222 43.47,-73.278 43.47,-129.582 0,-55.89 -14.49,-98.9461 -43.47,-129.5821 C 510.074,16.1959 469.088,0.87793 415.682,0.87793 362.276,0.87793 321.29,16.1959 292.31,46.4179 263.33,77.0539 249.254,120.11 249.254,176 c 0,56.304 14.076,99.36 43.056,129.582 z m 123.372,-44.298 c -36.846,0 -55.062,-28.152 -55.062,-85.284 0,-57.132 18.216,-85.6981 55.062,-85.6981 36.846,0 55.476,28.5661 55.476,85.6981 0,57.132 -18.63,85.284 -55.476,85.284 z"
         fill="#ffffff"
         id="path2079" /><path
         d="m 130.251,322.928 c 4.032,3.072 9.696,4.608 16.896,4.608 5.568,0 10.368,-0.672 14.304,-2.208 3.936,-1.536 6.72,-3.648 8.256,-6.528 h 2.4 v 7.2 h 16.704 v -36.48 c 0,-8.064 -2.784,-14.208 -8.16,-18.528 -5.472,-4.224 -13.344,-6.432 -23.616,-6.432 -10.944,0 -19.392,2.208 -25.536,6.432 -6.144,4.32 -9.6,10.464 -10.368,18.528 h 16.704 c 0.96,-3.456 3.072,-6.144 6.24,-7.872 3.072,-1.728 7.392,-2.592 12.864,-2.592 9.12,0 14.112,3.36 15.072,9.888 l -25.152,2.496 c -7.68,0.864 -13.44,2.784 -17.088,5.856 -3.744,3.072 -5.568,7.296 -5.568,12.768 0,5.472 2.016,9.792 6.048,12.864 z m 21.984,-9.024 c -6.912,0 -10.368,-1.728 -10.368,-5.28 0,-1.536 0.48,-2.688 1.536,-3.648 1.056,-0.864 2.592,-1.44 4.608,-1.632 l 24.096,-2.4 v 1.92 c 0,2.112 -0.96,3.936 -2.688,5.664 -1.728,1.728 -4.128,2.976 -7.2,3.936 -3.072,0.96 -6.336,1.44 -9.984,1.44 z"
         fill="#413f41"
         id="path2081" /><path
         d="m 265.115,266.48 h -17.28 V 326 h 17.28 v -29.76 c 0,-5.472 1.248,-9.504 3.84,-12 2.496,-2.496 6.528,-3.84 12,-3.84 5.472,0 9.504,1.344 12,3.84 2.496,2.496 3.84,6.528 3.84,12 V 326 h 17.28 v -33.6 c 0,-8.64 -2.496,-15.36 -7.296,-20.352 -4.896,-4.992 -11.616,-7.488 -20.064,-7.488 -4.608,0 -8.64,0.768 -11.904,2.112 -3.264,1.44 -5.76,3.456 -7.296,6.048 h -2.4 z"
         fill="#413f41"
         id="path2083" /><path
         d="m 386.957,324.08 c 5.376,2.592 11.904,3.84 19.392,3.84 7.392,0 13.824,-1.248 19.296,-3.84 5.376,-2.496 9.6,-6.144 12.48,-10.944 2.88,-4.8 4.416,-10.368 4.416,-16.896 0,-6.528 -1.536,-12.096 -4.416,-16.896 -2.88,-4.8 -7.104,-8.448 -12.48,-10.944 -5.472,-2.496 -11.904,-3.84 -19.296,-3.84 -7.488,0 -14.016,1.344 -19.392,3.84 -5.472,2.496 -9.6,6.144 -12.48,10.944 -2.88,4.8 -4.32,10.368 -4.32,16.896 0,6.528 1.44,12.096 4.32,16.896 2.88,4.8 7.104,8.448 12.48,10.944 z m 5.28,-15.456 c -3.264,-2.88 -4.896,-7.008 -4.896,-12.384 0,-5.376 1.632,-9.504 4.896,-12.384 3.264,-2.88 7.968,-4.32 14.112,-4.32 6.144,0 10.848,1.44 14.112,4.32 3.264,2.88 4.896,7.008 4.896,12.384 0,5.376 -1.632,9.504 -4.896,12.384 -3.264,2.88 -7.968,4.32 -14.112,4.32 -6.144,0 -10.848,-1.44 -14.112,-4.32 z"
         fill="#413f41"
         id="path2085" /><path
         d="m 530.382,313.52 c -9.216,0 -14.592,-2.016 -16.32,-6.144 h -17.184 c 1.152,13.728 12.288,20.544 33.504,20.544 10.368,0 18.432,-1.728 24,-5.28 5.568,-3.552 8.448,-8.64 8.448,-15.168 0,-5.76 -1.92,-10.176 -5.568,-13.152 -3.648,-2.88 -9.408,-4.608 -17.28,-5.184 l -17.952,-0.96 c -2.688,-0.096 -4.704,-0.48 -5.952,-1.152 -1.248,-0.576 -1.824,-1.536 -1.824,-2.688 0,-1.728 1.248,-3.072 3.84,-4.032 2.496,-0.864 6.432,-1.344 11.808,-1.344 5.184,0 9.216,0.672 12.096,1.824 2.88,1.152 4.608,2.976 5.376,5.472 h 16.992 c -0.48,-7.296 -3.552,-12.672 -9.216,-16.32 -5.76,-3.552 -14.112,-5.376 -25.248,-5.376 -10.56,0 -18.72,1.824 -24.384,5.376 -5.664,3.552 -8.448,8.544 -8.448,15.072 0,5.856 1.824,10.176 5.472,13.056 3.648,2.88 9.504,4.608 17.376,5.088 l 17.952,0.96 c 2.784,0.192 4.8,0.672 5.952,1.248 1.152,0.672 1.824,1.632 1.824,2.784 0,1.92 -1.248,3.264 -3.744,4.128 -2.496,0.864 -6.336,1.248 -11.52,1.248 z"
         fill="#413f41"
         id="path2087" /></g></g></svg>
