<svg width="422" height="248" viewBox="0 0 422 248" fill="none" xmlns="http://www.w3.org/2000/svg">
<path d="M157.721 233.393C156.694 236.197 154.641 238.493 151.591 238.493C149.291 238.493 147.75 237.212 147.237 234.905C146.673 232.902 146.363 230.836 146.313 228.755V185.909L146.333 182.967H96.0715V186.744H109.847V211.412C109.847 220.273 109.39 228.473 106.428 234.608C103.465 240.979 97.5451 244.858 86.6138 244.858C66.7792 244.858 55.3858 235.305 48.5569 220.97C41.728 206.635 39.6486 187.759 39.6486 169.334C39.6486 159.084 40.1158 146.353 42.6112 133.617C45.1322 121.097 49.2398 108.822 56.7464 99.7146C64.0425 90.6278 74.522 84.4776 89.8023 84.4776C115.085 84.4776 129.456 97.4493 132.419 129.292L132.932 134.627H146.03V75.852H146.107C146.107 48.3506 139.653 28.9314 127.982 17.2154C116.312 5.49935 98.9725 0.225586 76.8223 0.225586C51.4322 0.225586 35.2996 7.91328 25.6417 17.61C15.5626 27.317 11.9326 38.6231 11.9326 46.3108C11.9326 59.2517 22.4223 70.1836 35.2996 70.1836C48.177 70.1836 59.0878 59.2517 59.0878 46.3108C59.0878 33.3698 48.2078 22.8684 35.2996 22.8684C33.3229 22.8684 29.4258 23.2733 26.6223 24.406C26.6223 24.406 36.7578 10.6296 70.1012 10.6296C103.445 10.6296 109.878 37.106 109.878 57.7398V83.5756C102.684 82.0242 95.3444 81.2493 87.9847 81.2642C63.1491 81.2642 41.0451 89.2337 25.3439 104.24C9.64258 119.247 0 141.095 0 168.617C0 192.951 8.88781 212.514 23.9267 226.398C38.9657 240.282 59.7244 248 84.3341 248C94.5638 247.901 104.741 246.523 114.628 243.9C116.168 243.49 117.708 243.029 119.279 242.542C123.387 245.663 129.138 247.913 137.004 247.913C145.953 247.913 151.575 245.35 155.406 242.311C159.236 239.497 160.771 236.438 161.028 234.654L157.721 233.393Z" fill="#413F41"/>
<path d="M421.605 123.823C421.605 192.192 366.085 247.657 297.566 247.657C229.046 247.657 173.542 192.192 173.542 123.823C173.542 55.4539 229.061 0 297.566 0C366.07 0 421.605 55.4283 421.605 123.823Z" fill="#E62337"/>
<path d="M207.904 155.722L247.789 125.346C257.688 117.596 261.488 112.579 261.488 106.198C261.488 99.5046 256.774 95.4045 249.617 95.4045C242.459 95.4045 236.832 99.5046 228.453 109.078L208.52 92.5191C219.94 77.7689 231.205 69.7276 251.897 69.7276C275.197 69.7276 291.175 83.5655 291.175 103.615V103.912C291.175 120.938 282.349 129.738 266.53 141.136L248.251 153.898H292.254V177.909H207.904V155.722Z" fill="white"/>
<path d="M302.935 155.722L342.804 125.346C352.693 117.596 356.492 112.579 356.492 106.198C356.492 99.5046 351.784 95.4045 344.622 95.4045C337.459 95.4045 331.847 99.5046 323.457 109.078L303.535 92.5191C314.934 77.7689 326.209 69.7276 346.917 69.7276C370.202 69.7276 386.19 83.5655 386.19 103.615V103.912C386.19 120.938 377.364 129.738 361.545 141.136L343.281 153.898H387.253V177.909H302.935V155.722Z" fill="white"/>
</svg>
