<svg width="442" height="261" fill="none" xmlns="http://www.w3.org/2000/svg"><path d="M165.101 244.875c-1.074 2.939-3.222 5.346-6.412 5.346-2.406 0-4.017-1.343-4.554-3.761a26.195 26.195 0 0 1-.967-6.448v-44.918l.021-3.084h-52.573v3.96h14.41v25.86c0 9.29-.478 17.887-3.577 24.318-3.099 6.679-9.292 10.746-20.726 10.746-20.746 0-32.664-10.015-39.807-25.043-7.143-15.028-9.318-34.817-9.318-54.133 0-10.746.489-24.093 3.099-37.445 2.637-13.126 6.933-25.994 14.785-35.542 7.632-9.527 18.594-15.974 34.577-15.974 26.445 0 41.477 13.599 44.576 46.981l.537 5.594h13.701V79.714h.08c0-28.831-6.751-49.19-18.958-61.473C121.787 5.96 103.651.43 80.482.43c-26.558 0-43.433 8.06-53.535 18.225-10.543 10.177-14.34 22.03-14.34 30.089 0 13.567 10.973 25.028 24.442 25.028 13.47 0 24.882-11.461 24.882-25.028 0-13.567-11.38-24.576-24.882-24.576-2.068 0-6.144.424-9.076 1.612 0 0 10.601-14.443 45.478-14.443s41.607 27.757 41.607 49.389V87.81a107.378 107.378 0 0 0-22.9-2.423c-25.978 0-49.1 8.355-65.523 24.087C10.212 125.207.125 148.112.125 176.966c0 25.511 9.298 46.019 25.028 60.575 15.73 14.555 37.444 22.647 63.186 22.647a128.154 128.154 0 0 0 31.687-4.298c1.611-.43 3.222-.914 4.865-1.424 4.297 3.272 10.312 5.631 18.54 5.631 9.361 0 15.242-2.687 19.248-5.873 4.007-2.95 5.613-6.157 5.881-8.027l-3.459-1.322Z" fill="#101010"/><path d="M441.125 130.005c0 71.676-58.073 129.823-129.744 129.823-71.671 0-129.728-58.147-129.728-129.823C181.653 58.33 239.726.193 311.381.193s129.744 58.11 129.744 129.812Z" fill="#E62337"/><path d="m217.595 163.447 41.719-31.846c10.355-8.124 14.329-13.384 14.329-20.073 0-7.018-4.93-11.316-12.417-11.316s-13.373 4.298-22.138 14.335l-20.849-17.36c11.945-15.463 23.728-23.894 45.371-23.894 24.372 0 41.086 14.507 41.086 35.527v.311c0 17.849-9.232 27.075-25.779 39.024l-19.12 13.379h46.027v25.173h-88.229v-23.26Zm99.398 0 41.703-31.846c10.344-8.124 14.318-13.384 14.318-20.073 0-7.018-4.924-11.316-12.417-11.316-7.492 0-13.362 4.298-22.137 14.335l-20.838-17.36c11.922-15.463 23.716-23.894 45.376-23.894 24.356 0 41.08 14.507 41.08 35.527v.311c0 17.849-9.232 27.075-25.779 39.024l-19.103 13.379h45.994v25.173h-88.197v-23.26Z" fill="#fff"/></svg>