<svg width="260" height="260" fill="none" xmlns="http://www.w3.org/2000/svg"><path d="M259.724 130.005c0 71.676-58.073 129.823-129.744 129.823C58.309 259.828.252 201.681.252 130.005.252 58.33 58.325.193 129.98.193s129.744 58.11 129.744 129.812Z" fill="#E62337"/><path d="m36.194 163.447 41.72-31.846c10.354-8.124 14.328-13.384 14.328-20.073 0-7.018-4.93-11.316-12.417-11.316s-13.373 4.298-22.138 14.335l-20.849-17.36C48.783 81.724 60.566 73.293 82.21 73.293c24.372 0 41.085 14.507 41.085 35.527v.311c0 17.849-9.232 27.075-25.78 39.024l-19.118 13.379h46.026v25.173h-88.23v-23.26Zm99.398 0 41.703-31.846c10.344-8.124 14.319-13.384 14.319-20.073 0-7.018-4.925-11.316-12.417-11.316s-13.363 4.298-22.138 14.335l-20.838-17.36c11.923-15.463 23.717-23.894 45.376-23.894 24.356 0 41.08 14.507 41.08 35.527v.311c0 17.849-9.232 27.075-25.779 39.024l-19.103 13.379h45.994v25.173h-88.197v-23.26Z" fill="#fff"/></svg>