<svg width="513" height="512" fill="none" xmlns="http://www.w3.org/2000/svg"><rect x=".69" width="512" height="512" rx="20" fill="#0B0B0B"/><path d="M207.375 357.859c-.954 2.61-2.862 4.748-5.695 4.748-2.137 0-3.568-1.193-4.045-3.341a23.303 23.303 0 0 1-.859-5.726v-39.895l.019-2.739h-46.693v3.517H162.9v22.968c0 8.251-.425 15.886-3.177 21.599-2.753 5.931-8.252 9.544-18.408 9.544-18.426 0-29.011-8.895-35.355-22.243-6.344-13.348-8.276-30.923-8.276-48.079 0-9.544.434-21.398 2.752-33.257 2.342-11.658 6.158-23.088 13.132-31.568 6.778-8.461 16.514-14.187 30.709-14.187 23.488 0 36.839 12.078 39.592 41.727l.477 4.968h12.168v-54.727h.072c0-25.607-5.996-43.689-16.839-54.598-10.842-10.909-26.95-15.819-47.528-15.819-23.588 0-38.575 7.158-47.548 16.187-9.363 9.038-12.736 19.565-12.736 26.724 0 12.049 9.745 22.228 21.709 22.228 11.963 0 22.099-10.179 22.099-22.228 0-12.05-10.108-21.828-22.1-21.828-1.836 0-5.456.377-8.06 1.432 0 0 9.415-12.828 40.392-12.828 30.976 0 36.953 24.653 36.953 43.866v24.056a95.316 95.316 0 0 0-20.339-2.152c-23.073 0-43.608 7.42-58.195 21.393-14.586 13.973-23.544 34.316-23.544 59.943 0 22.658 8.256 40.873 22.228 53.801 13.971 12.927 33.257 20.114 56.119 20.114a113.83 113.83 0 0 0 28.144-3.817c1.431-.382 2.862-.812 4.321-1.265 3.816 2.906 9.159 5.001 16.466 5.001 8.314 0 13.538-2.386 17.096-5.216 3.559-2.62 4.985-5.469 5.223-7.129l-3.072-1.174Z" fill="#fff"/><path d="M452.53 255.835c0 63.661-51.578 115.304-115.234 115.304-63.656 0-115.22-51.643-115.22-115.304 0-63.66 51.578-115.294 115.22-115.294 63.642 0 115.234 51.61 115.234 115.294Z" fill="#E62337"/><path d="m253.998 285.537 37.054-28.284c9.196-7.216 12.726-11.888 12.726-17.829 0-6.232-4.379-10.05-11.028-10.05-6.65 0-11.878 3.818-19.662 12.732l-18.517-15.419c10.608-13.734 21.073-21.221 40.297-21.221 21.646 0 36.49 12.884 36.49 31.553v.277c0 15.853-8.199 24.046-22.896 34.66l-16.981 11.882h40.879v22.358h-78.362v-20.659Zm88.283 0 37.039-28.284c9.187-7.216 12.717-11.888 12.717-17.829 0-6.232-4.374-10.05-11.029-10.05-6.654 0-11.867 3.818-19.662 12.732l-18.507-15.419c10.589-13.734 21.064-21.221 40.302-21.221 21.632 0 36.486 12.884 36.486 31.553v.277c0 15.853-8.2 24.046-22.897 34.66l-16.967 11.882h40.851v22.358h-78.333v-20.659Z" fill="#fff"/></svg>