<svg width="441" height="261" fill="none" xmlns="http://www.w3.org/2000/svg"><path d="M164.976 245.235c-1.075 2.939-3.223 5.346-6.413 5.346-2.406 0-4.017-1.343-4.554-3.761a26.235 26.235 0 0 1-.967-6.448v-44.918l.021-3.084H100.49v3.96h14.41v25.86c0 9.29-.478 17.887-3.577 24.318-3.099 6.679-9.291 10.746-20.725 10.746-20.747 0-32.665-10.015-39.808-25.043-7.143-15.028-9.318-34.817-9.318-54.133 0-10.746.489-24.093 3.099-37.445 2.637-13.126 6.934-25.994 14.785-35.542 7.632-9.526 18.594-15.974 34.577-15.974 26.445 0 41.477 13.599 44.576 46.981l.537 5.594h13.701V80.074h.08c0-28.831-6.751-49.19-18.958-61.472C121.661 6.319 103.525.79 80.356.79 53.798.79 36.923 8.85 26.82 19.015c-10.543 10.177-14.34 22.03-14.34 30.09 0 13.566 10.973 25.027 24.442 25.027 13.47 0 24.882-11.461 24.882-25.028 0-13.567-11.38-24.576-24.882-24.576-2.068 0-6.144.424-9.076 1.612 0 0 10.602-14.443 45.479-14.443 34.876 0 41.606 27.757 41.606 49.389V88.17a107.37 107.37 0 0 0-22.9-2.423c-25.978 0-49.099 8.355-65.522 24.087C10.086 125.567 0 148.473 0 177.326c0 25.511 9.297 46.019 25.027 60.575 15.73 14.555 37.444 22.647 63.186 22.647a128.153 128.153 0 0 0 31.687-4.298c1.611-.43 3.222-.914 4.866-1.424 4.296 3.272 10.311 5.631 18.539 5.631 9.361 0 15.242-2.687 19.248-5.873 4.007-2.95 5.613-6.157 5.881-8.027l-3.458-1.322Z" fill="#fff"/><path d="M440.999 130.365c0 71.676-58.073 129.823-129.744 129.823-71.671 0-129.728-58.147-129.728-129.823C181.527 58.69 239.6.554 311.255.554s129.744 58.109 129.744 129.811Z" fill="#E62337"/><path d="m217.469 163.807 41.719-31.846c10.355-8.124 14.329-13.384 14.329-20.073 0-7.018-4.93-11.316-12.417-11.316s-13.373 4.298-22.138 14.335l-20.849-17.36c11.945-15.463 23.728-23.894 45.372-23.894 24.372 0 41.085 14.507 41.085 35.527v.311c0 17.849-9.232 27.075-25.779 39.024l-19.12 13.379h46.027v25.173h-88.229v-23.26Zm99.398 0 41.703-31.846c10.344-8.124 14.319-13.384 14.319-20.073 0-7.018-4.925-11.316-12.417-11.316s-13.363 4.298-22.138 14.335l-20.838-17.36c11.923-15.463 23.716-23.894 45.376-23.894 24.356 0 41.08 14.507 41.08 35.527v.311c0 17.849-9.232 27.075-25.779 39.024l-19.103 13.379h45.994v25.173h-88.197v-23.26Z" fill="#fff"/></svg>